<svg xmlns:svg="http://www.w3.org/2000/svg" xmlns="http://www.w3.org/2000/svg" width="1920" height="1080" viewBox="0 0 1920 1080" version="1"><g transform="translate(0,27.6)"><rect y="752" x="1300" height="300" width="120" fill="#207572"/><rect width="80" height="20" x="1320" y="772" style="fill-opacity:0.53;fill:#f3ff30;image-rendering:auto"/><path d="m280 1052 0-500 60 0 0-100 40-80 40 80 0 100 60 0 0 500z" fill="#8a6376"/><path d="m40 1052 0-680 100-130 100 130 0 680z" fill="#5b856d"/><rect y="812" x="1320" height="20" width="80" style="fill-opacity:0.31;fill:#f3ff30"/><rect width="80" height="20" x="1320" y="852" style="fill-opacity:0.53;fill:#f3ff30"/><rect y="892" x="1320" height="20" width="80" style="fill-opacity:0.73;fill:#f3ff30"/><rect width="80" height="20" x="1320" y="932" style="fill-opacity:0.31;fill:#f3ff35"/><rect y="972" x="1320" height="20" width="80" style="fill-opacity:0.53;fill:#f3ff30"/><rect width="80" height="20" x="1320" y="1012" style="fill-opacity:0.67;fill:#f3ff30"/><rect width="40" height="40" x="80" y="412" style="fill-opacity:0.33;fill:#f3ff30"/><rect width="40" height="40" x="160" y="412" style="fill-opacity:0.73;fill:#f3ff30"/><rect width="40" height="40" x="80" y="492" style="fill-opacity:0.53;fill:#f3ff30"/><rect width="40" height="40" x="160" y="492" style="fill-opacity:0.53;fill:#f3ff30"/><rect width="40" height="40" x="80" y="572" style="fill-opacity:0.73;fill:#f3ff30"/><rect width="40" height="40" x="160" y="572" style="fill-opacity:0.33;fill:#f3ff30"/><rect width="40" height="40" x="80" y="652" style="fill-opacity:0.53;fill:#f3ff30"/><rect width="40" height="40" x="160" y="652" style="fill-opacity:0.33;fill:#f3ff30"/><rect width="40" height="40" x="80" y="732" style="fill-opacity:0.33;fill:#f3ff30"/><rect width="40" height="40" x="160" y="732" style="fill-opacity:0.73;fill:#f3ff30"/><rect width="40" height="40" x="80" y="812" style="fill-opacity:0.53;fill:#f3ff30"/><rect width="40" height="40" x="160" y="812" style="fill-opacity:0.53;fill:#f3ff30"/><rect width="40" height="40" x="80" y="892" style="fill-opacity:0.33;fill:#f3ff30"/><rect width="40" height="40" x="80" y="972" style="fill-opacity:0.73;fill:#f3ff30"/><rect width="40" height="40" x="160" y="892" style="fill-opacity:0.53;fill:#f3ff30"/><rect width="40" height="40" x="160" y="972" style="fill-opacity:0.33;fill:#f3ff30"/><path d="m80 372 60-80 60 80z" style="fill-opacity:0.53;fill:#f3ff30"/><path d="m370 452 10-20 10 20 0 100-20 0" style="fill-opacity:0.53;fill:#f3ff30"/><rect width="40" height="100" x="320" y="592" style="fill-opacity:0.33;fill:#f3ff30"/><rect width="40" height="100" x="400" y="592" style="fill-opacity:0.67;fill:#f3ff30"/><rect width="40" height="120" x="320" y="892" style="fill-opacity:0.67;fill:#f3ff30"/><rect width="40" height="120" x="400" y="892" style="fill-opacity:0.33;fill:#f3ff30"/><rect width="40" height="120" x="320" y="732" style="fill-opacity:0.53;fill:#f3ff30"/><rect width="40" height="120" x="400" y="732" style="fill-opacity:0.53;fill:#f3ff30"/><path d="m1880 1052 0-860-120 60-80 800z" fill="#af593e"/><path d="m1640 1052 0-360-40 0 0-180-40 0 0-180-20 0 0 180-40 0 0 180-40 0 0 360z" fill="#a97329"/><rect width="20" height="520" x="1520" y="532" style="fill-opacity:0.67;fill:#ff0"/><rect width="20" height="520" x="1560" y="532" style="fill-opacity:0.33;fill:#ff0"/><rect width="20" height="340" x="1480" y="712" style="fill-opacity:0.53;fill:#ff0"/><rect y="712" x="1600" height="340" width="20" style="fill-opacity:0.67;fill:#ff0"/><path d="m1780 272 80-40 0 220-100 0z" style="fill-opacity:0.53;fill:#ff0"/><path d="m1760 472 100 0 0 180-120 0z" style="fill-opacity:0.33;fill:#ff0"/><path d="m1740 672 120 0 0 180-140 0z" style="fill-opacity:0.47;fill:#ff0"/><path d="m1720 872 140 0 0 160-160 0z" style="fill-opacity:0.33;fill:#ff0"/><path d="m520 1052 0-440 180 440z" fill="#ac6336"/><path d="m540 702 139 340-66 1" style="fill-opacity:0.67;fill:#f3ff30"/></g></svg>